<svg height="300px" width="300px" fill="#252525" xmlns="http://www.w3.org/2000/svg" viewBox="0 0 96 96" x="0px" y="0px">
    <g>
        <path d="M84.9222,67.3469c2.5683-7.7022-4.9667-19.9451-9.786-26.6845L64.64,51.1584l16.97,16.97a2.0007,2.0007,0,0,0,3.3117-.7817Z" />
        <path d="M28.6531,11.0778a2.0007,2.0007,0,0,0-.7817,3.3117l16.97,16.97,10.496-10.496C48.5982,16.0445,36.3553,8.51,28.6531,11.0778Z" />
        <rect x="48.3979" y="25.6025" width="23.9995" height="19.9996" rx="2" ry="2" transform="translate(-7.4846 53.1353) rotate(-45)" />
        <path d="M12.3153,75.2a6,6,0,1,0,8.4852,8.4852L53.3268,51.1584l-8.4852-8.4852Z" />
    </g>
</svg>
