<svg height="300px" width="300px" fill="#252525" xmlns="http://www.w3.org/2000/svg" version="1.1" x="0px" y="0px" viewBox="0 0 100 100" enable-background="new 0 0 100 100" xml:space="preserve"><path fill-rule="evenodd" clip-rule="evenodd" d="M74.951,63.074l9.1,7.551l-8.949-10.35c-0.068-0.066-0.117-0.117-0.15-0.15  l-4.9-5.551l-11.949,5.051l10.6-24.051L44.4,48.676l-0.1-0.15l7.949-16.5l-16.898,9.049l-7.5-6.1l-0.051-0.049l-10.051-8  l15.451,16.699l10.6-2.35l-6.85,15.049l24.4-12.1l-12.701,26.6l20.951-12.1l5.199,4.301L74.951,63.074z M95,80.926v0.1l-20.398-16  c-3.768,7.967-10.918,14.482-21.451,19.549c-0.033,0.068-0.1,0.117-0.199,0.15l-0.4,0.15L52.5,84.824  c-0.033,0.033-0.066,0.051-0.1,0.051l0.051-0.051l-0.35-0.1c-0.135-0.033-0.234-0.1-0.301-0.199  c-15.633-7.533-23.768-18.25-24.4-32.15V39.926L5,15.125l22.4,17.4v-10.65h50.25v30.5c-0.166,2.4-0.533,4.768-1.1,7.1L95,80.926z"></path></svg>
